<mxfile host="app.diagrams.net" modified="2023-12-20T13:15:55.627Z" agent="Mozilla/5.0 (Windows NT 10.0; Win64; x64) AppleWebKit/537.36 (KHTML, like Gecko) Chrome/120.0.0.0 Safari/537.36" etag="Xys6U3FwcUsIIk7Jf2wP" version="22.1.11" type="device">
  <diagram name="Page-1" id="srnsiey8MTIw1Tc4YOF3">
    <mxGraphModel dx="1877" dy="522" grid="1" gridSize="10" guides="1" tooltips="1" connect="1" arrows="1" fold="1" page="1" pageScale="1" pageWidth="827" pageHeight="1169" math="0" shadow="0">
      <root>
        <mxCell id="0" />
        <mxCell id="1" parent="0" />
        <mxCell id="F8SetdtUbHbw25VRXW6T-6" value="" style="strokeWidth=1;shadow=0;dashed=0;align=center;html=1;shape=mxgraph.mockup.containers.browserWindow;rSize=0;strokeColor=#666666;strokeColor2=#008cff;strokeColor3=#c4c4c4;mainText=,;recursiveResize=0;gradientColor=none;fillStyle=auto;" vertex="1" parent="1">
          <mxGeometry x="-813" y="530" width="800" height="730" as="geometry" />
        </mxCell>
        <mxCell id="F8SetdtUbHbw25VRXW6T-7" value="Page 1" style="strokeWidth=1;shadow=0;dashed=0;align=center;html=1;shape=mxgraph.mockup.containers.anchor;fontSize=17;fontColor=#666666;align=left;whiteSpace=wrap;" vertex="1" parent="F8SetdtUbHbw25VRXW6T-6">
          <mxGeometry x="60" y="12" width="110" height="26" as="geometry" />
        </mxCell>
        <mxCell id="F8SetdtUbHbw25VRXW6T-8" value="https://www.draw.io" style="strokeWidth=1;shadow=0;dashed=0;align=center;html=1;shape=mxgraph.mockup.containers.anchor;rSize=0;fontSize=17;fontColor=#666666;align=left;" vertex="1" parent="F8SetdtUbHbw25VRXW6T-6">
          <mxGeometry x="130" y="60" width="250" height="26" as="geometry" />
        </mxCell>
        <mxCell id="F8SetdtUbHbw25VRXW6T-9" value="&lt;table cellpadding=&quot;0&quot; cellspacing=&quot;0&quot; style=&quot;width:100%;height:100%;&quot;&gt;&lt;tr&gt;&lt;td style=&quot;width:85%&quot;&gt;100&lt;/td&gt;&lt;td style=&quot;width:15%&quot;&gt;&lt;/td&gt;&lt;/tr&gt;&lt;/table&gt;" style="strokeWidth=1;shadow=0;dashed=0;align=center;html=1;shape=mxgraph.mockup.forms.spinner;strokeColor=#999999;spinLayout=right;spinStyle=normal;adjStyle=triangle;fillColor=#aaddff;fontSize=17;fontColor=#666666;mainText=;html=1;overflow=fill;" vertex="1" parent="F8SetdtUbHbw25VRXW6T-6">
          <mxGeometry x="110" y="210" width="140" height="40" as="geometry" />
        </mxCell>
        <mxCell id="F8SetdtUbHbw25VRXW6T-11" value="Taux horaire" style="text;html=1;strokeColor=none;fillColor=none;align=center;verticalAlign=middle;whiteSpace=wrap;rounded=0;" vertex="1" parent="F8SetdtUbHbw25VRXW6T-6">
          <mxGeometry x="137.5" y="261" width="85" height="30" as="geometry" />
        </mxCell>
        <mxCell id="F8SetdtUbHbw25VRXW6T-12" value="" style="shape=mxgraph.signs.travel.euro;html=1;pointerEvents=1;fillColor=#000000;strokeColor=none;verticalLabelPosition=bottom;verticalAlign=top;align=center;" vertex="1" parent="F8SetdtUbHbw25VRXW6T-6">
          <mxGeometry x="50" y="150" width="50" height="49" as="geometry" />
        </mxCell>
        <mxCell id="F8SetdtUbHbw25VRXW6T-30" value="&lt;table cellpadding=&quot;0&quot; cellspacing=&quot;0&quot; style=&quot;width:100%;height:100%;&quot;&gt;&lt;tr&gt;&lt;td style=&quot;width:85%&quot;&gt;100&lt;/td&gt;&lt;td style=&quot;width:15%&quot;&gt;&lt;/td&gt;&lt;/tr&gt;&lt;/table&gt;" style="strokeWidth=1;shadow=0;dashed=0;align=center;html=1;shape=mxgraph.mockup.forms.spinner;strokeColor=#999999;spinLayout=right;spinStyle=normal;adjStyle=triangle;fillColor=#aaddff;fontSize=17;fontColor=#666666;mainText=;html=1;overflow=fill;" vertex="1" parent="F8SetdtUbHbw25VRXW6T-6">
          <mxGeometry x="320" y="210" width="140" height="40" as="geometry" />
        </mxCell>
        <mxCell id="F8SetdtUbHbw25VRXW6T-31" value="TJM" style="text;html=1;strokeColor=none;fillColor=none;align=center;verticalAlign=middle;whiteSpace=wrap;rounded=0;" vertex="1" parent="F8SetdtUbHbw25VRXW6T-6">
          <mxGeometry x="347.5" y="261" width="85" height="30" as="geometry" />
        </mxCell>
        <mxCell id="F8SetdtUbHbw25VRXW6T-32" value="&lt;table cellpadding=&quot;0&quot; cellspacing=&quot;0&quot; style=&quot;width:100%;height:100%;&quot;&gt;&lt;tr&gt;&lt;td style=&quot;width:85%&quot;&gt;100&lt;/td&gt;&lt;td style=&quot;width:15%&quot;&gt;&lt;/td&gt;&lt;/tr&gt;&lt;/table&gt;" style="strokeWidth=1;shadow=0;dashed=0;align=center;html=1;shape=mxgraph.mockup.forms.spinner;strokeColor=#999999;spinLayout=right;spinStyle=normal;adjStyle=triangle;fillColor=#aaddff;fontSize=17;fontColor=#666666;mainText=;html=1;overflow=fill;" vertex="1" parent="F8SetdtUbHbw25VRXW6T-6">
          <mxGeometry x="540" y="210" width="140" height="40" as="geometry" />
        </mxCell>
        <mxCell id="F8SetdtUbHbw25VRXW6T-33" value="Extras" style="text;html=1;strokeColor=none;fillColor=none;align=center;verticalAlign=middle;whiteSpace=wrap;rounded=0;" vertex="1" parent="F8SetdtUbHbw25VRXW6T-6">
          <mxGeometry x="567.5" y="261" width="85" height="30" as="geometry" />
        </mxCell>
        <mxCell id="F8SetdtUbHbw25VRXW6T-34" value="&lt;table cellpadding=&quot;0&quot; cellspacing=&quot;0&quot; style=&quot;width:100%;height:100%;&quot;&gt;&lt;tr&gt;&lt;td style=&quot;width:85%&quot;&gt;100&lt;/td&gt;&lt;td style=&quot;width:15%&quot;&gt;&lt;/td&gt;&lt;/tr&gt;&lt;/table&gt;" style="strokeWidth=1;shadow=0;dashed=0;align=center;html=1;shape=mxgraph.mockup.forms.spinner;strokeColor=#999999;spinLayout=right;spinStyle=normal;adjStyle=triangle;fillColor=#aaddff;fontSize=17;fontColor=#666666;mainText=;html=1;overflow=fill;" vertex="1" parent="F8SetdtUbHbw25VRXW6T-6">
          <mxGeometry x="110" y="351" width="140" height="40" as="geometry" />
        </mxCell>
        <mxCell id="F8SetdtUbHbw25VRXW6T-35" value="Taux horaire" style="text;html=1;strokeColor=none;fillColor=none;align=center;verticalAlign=middle;whiteSpace=wrap;rounded=0;" vertex="1" parent="F8SetdtUbHbw25VRXW6T-6">
          <mxGeometry x="137.5" y="402" width="85" height="30" as="geometry" />
        </mxCell>
        <mxCell id="F8SetdtUbHbw25VRXW6T-37" value="&lt;table cellpadding=&quot;0&quot; cellspacing=&quot;0&quot; style=&quot;width:100%;height:100%;&quot;&gt;&lt;tr&gt;&lt;td style=&quot;width:85%&quot;&gt;100&lt;/td&gt;&lt;td style=&quot;width:15%&quot;&gt;&lt;/td&gt;&lt;/tr&gt;&lt;/table&gt;" style="strokeWidth=1;shadow=0;dashed=0;align=center;html=1;shape=mxgraph.mockup.forms.spinner;strokeColor=#999999;spinLayout=right;spinStyle=normal;adjStyle=triangle;fillColor=#aaddff;fontSize=17;fontColor=#666666;mainText=;html=1;overflow=fill;" vertex="1" parent="F8SetdtUbHbw25VRXW6T-6">
          <mxGeometry x="320" y="351" width="140" height="40" as="geometry" />
        </mxCell>
        <mxCell id="F8SetdtUbHbw25VRXW6T-38" value="TJM" style="text;html=1;strokeColor=none;fillColor=none;align=center;verticalAlign=middle;whiteSpace=wrap;rounded=0;" vertex="1" parent="F8SetdtUbHbw25VRXW6T-6">
          <mxGeometry x="347.5" y="402" width="85" height="30" as="geometry" />
        </mxCell>
        <mxCell id="F8SetdtUbHbw25VRXW6T-39" value="&lt;table cellpadding=&quot;0&quot; cellspacing=&quot;0&quot; style=&quot;width:100%;height:100%;&quot;&gt;&lt;tr&gt;&lt;td style=&quot;width:85%&quot;&gt;100&lt;/td&gt;&lt;td style=&quot;width:15%&quot;&gt;&lt;/td&gt;&lt;/tr&gt;&lt;/table&gt;" style="strokeWidth=1;shadow=0;dashed=0;align=center;html=1;shape=mxgraph.mockup.forms.spinner;strokeColor=#999999;spinLayout=right;spinStyle=normal;adjStyle=triangle;fillColor=#aaddff;fontSize=17;fontColor=#666666;mainText=;html=1;overflow=fill;" vertex="1" parent="F8SetdtUbHbw25VRXW6T-6">
          <mxGeometry x="540" y="351" width="140" height="40" as="geometry" />
        </mxCell>
        <mxCell id="F8SetdtUbHbw25VRXW6T-40" value="Extras" style="text;html=1;strokeColor=none;fillColor=none;align=center;verticalAlign=middle;whiteSpace=wrap;rounded=0;" vertex="1" parent="F8SetdtUbHbw25VRXW6T-6">
          <mxGeometry x="567.5" y="402" width="85" height="30" as="geometry" />
        </mxCell>
        <mxCell id="F8SetdtUbHbw25VRXW6T-41" value="&lt;table cellpadding=&quot;0&quot; cellspacing=&quot;0&quot; style=&quot;width:100%;height:100%;&quot;&gt;&lt;tr&gt;&lt;td style=&quot;width:85%&quot;&gt;100&lt;/td&gt;&lt;td style=&quot;width:15%&quot;&gt;&lt;/td&gt;&lt;/tr&gt;&lt;/table&gt;" style="strokeWidth=1;shadow=0;dashed=0;align=center;html=1;shape=mxgraph.mockup.forms.spinner;strokeColor=#999999;spinLayout=right;spinStyle=normal;adjStyle=triangle;fillColor=#aaddff;fontSize=17;fontColor=#666666;mainText=;html=1;overflow=fill;" vertex="1" parent="F8SetdtUbHbw25VRXW6T-6">
          <mxGeometry x="110" y="500" width="140" height="40" as="geometry" />
        </mxCell>
        <mxCell id="F8SetdtUbHbw25VRXW6T-42" value="Taux horaire" style="text;html=1;strokeColor=none;fillColor=none;align=center;verticalAlign=middle;whiteSpace=wrap;rounded=0;" vertex="1" parent="F8SetdtUbHbw25VRXW6T-6">
          <mxGeometry x="137.5" y="551" width="85" height="30" as="geometry" />
        </mxCell>
        <mxCell id="F8SetdtUbHbw25VRXW6T-50" value="&lt;font size=&quot;1&quot; style=&quot;&quot;&gt;&lt;b style=&quot;font-size: 20px;&quot;&gt;Quantitées&lt;/b&gt;&lt;/font&gt;" style="text;html=1;strokeColor=none;fillColor=none;align=center;verticalAlign=middle;whiteSpace=wrap;rounded=0;" vertex="1" parent="F8SetdtUbHbw25VRXW6T-6">
          <mxGeometry x="50" y="310" width="110" height="30" as="geometry" />
        </mxCell>
        <mxCell id="F8SetdtUbHbw25VRXW6T-51" value="Calculer" style="rounded=1;whiteSpace=wrap;html=1;fillColor=#647687;fontColor=#ffffff;strokeColor=#314354;" vertex="1" parent="F8SetdtUbHbw25VRXW6T-6">
          <mxGeometry x="330" y="570" width="120" height="30" as="geometry" />
        </mxCell>
        <mxCell id="F8SetdtUbHbw25VRXW6T-52" value="&lt;font style=&quot;font-size: 16px;&quot;&gt;BRUT €&lt;/font&gt;" style="rounded=0;whiteSpace=wrap;html=1;fillColor=#f8cecc;strokeColor=#b85450;" vertex="1" parent="F8SetdtUbHbw25VRXW6T-6">
          <mxGeometry x="120" y="639" width="120" height="41" as="geometry" />
        </mxCell>
        <mxCell id="F8SetdtUbHbw25VRXW6T-53" value="&lt;font size=&quot;1&quot;&gt;&lt;b style=&quot;font-size: 16px;&quot;&gt;NET €&lt;/b&gt;&lt;/font&gt;" style="rounded=0;whiteSpace=wrap;html=1;fillColor=#d5e8d4;strokeColor=#82b366;" vertex="1" parent="F8SetdtUbHbw25VRXW6T-6">
          <mxGeometry x="550" y="639" width="120" height="41" as="geometry" />
        </mxCell>
        <mxCell id="F8SetdtUbHbw25VRXW6T-54" value="&lt;font style=&quot;font-size: 16px;&quot;&gt;- xx € charges&lt;/font&gt;" style="text;html=1;strokeColor=none;fillColor=none;align=center;verticalAlign=middle;whiteSpace=wrap;rounded=0;" vertex="1" parent="F8SetdtUbHbw25VRXW6T-6">
          <mxGeometry x="360" y="639" width="60" height="30" as="geometry" />
        </mxCell>
        <mxCell id="F8SetdtUbHbw25VRXW6T-17" style="edgeStyle=orthogonalEdgeStyle;rounded=0;orthogonalLoop=1;jettySize=auto;html=1;" edge="1" parent="1" source="F8SetdtUbHbw25VRXW6T-14">
          <mxGeometry relative="1" as="geometry">
            <mxPoint x="-690" y="250" as="targetPoint" />
          </mxGeometry>
        </mxCell>
        <mxCell id="F8SetdtUbHbw25VRXW6T-14" value="&lt;font style=&quot;font-size: 16px;&quot;&gt;&lt;b&gt;TH : Taux Horaire&lt;/b&gt;&lt;/font&gt;" style="shape=document;whiteSpace=wrap;html=1;boundedLbl=1;fillColor=#ffe6cc;strokeColor=#d79b00;" vertex="1" parent="1">
          <mxGeometry x="-750" y="120" width="120" height="80" as="geometry" />
        </mxCell>
        <mxCell id="F8SetdtUbHbw25VRXW6T-18" style="edgeStyle=orthogonalEdgeStyle;rounded=0;orthogonalLoop=1;jettySize=auto;html=1;" edge="1" parent="1" source="F8SetdtUbHbw25VRXW6T-15">
          <mxGeometry relative="1" as="geometry">
            <mxPoint x="-470" y="250" as="targetPoint" />
          </mxGeometry>
        </mxCell>
        <mxCell id="F8SetdtUbHbw25VRXW6T-15" value="&lt;font size=&quot;1&quot; style=&quot;&quot;&gt;&lt;b style=&quot;font-size: 15px;&quot;&gt;TJM : Taux journalier moyen&lt;/b&gt;&lt;/font&gt;" style="shape=document;whiteSpace=wrap;html=1;boundedLbl=1;fillColor=#d5e8d4;strokeColor=#82b366;" vertex="1" parent="1">
          <mxGeometry x="-530" y="120" width="120" height="80" as="geometry" />
        </mxCell>
        <mxCell id="F8SetdtUbHbw25VRXW6T-19" style="edgeStyle=orthogonalEdgeStyle;rounded=0;orthogonalLoop=1;jettySize=auto;html=1;" edge="1" parent="1" source="F8SetdtUbHbw25VRXW6T-16">
          <mxGeometry relative="1" as="geometry">
            <mxPoint x="-220" y="250" as="targetPoint" />
          </mxGeometry>
        </mxCell>
        <mxCell id="F8SetdtUbHbw25VRXW6T-16" value="Extras" style="ellipse;shape=cloud;whiteSpace=wrap;html=1;" vertex="1" parent="1">
          <mxGeometry x="-280" y="120" width="120" height="80" as="geometry" />
        </mxCell>
        <mxCell id="F8SetdtUbHbw25VRXW6T-20" value="TH * nombre d&#39;heures" style="text;html=1;align=center;verticalAlign=middle;resizable=0;points=[];autosize=1;strokeColor=none;fillColor=none;" vertex="1" parent="1">
          <mxGeometry x="-760" y="258" width="140" height="30" as="geometry" />
        </mxCell>
        <mxCell id="F8SetdtUbHbw25VRXW6T-21" value="" style="shape=image;html=1;verticalAlign=top;verticalLabelPosition=bottom;labelBackgroundColor=#ffffff;imageAspect=0;aspect=fixed;image=https://cdn4.iconfinder.com/data/icons/ionicons/512/icon-plus-128.png" vertex="1" parent="1">
          <mxGeometry x="-590" y="263" width="20" height="20" as="geometry" />
        </mxCell>
        <mxCell id="F8SetdtUbHbw25VRXW6T-22" value="" style="shape=image;html=1;verticalAlign=top;verticalLabelPosition=bottom;labelBackgroundColor=#ffffff;imageAspect=0;aspect=fixed;image=https://cdn4.iconfinder.com/data/icons/ionicons/512/icon-plus-128.png" vertex="1" parent="1">
          <mxGeometry x="-330" y="263" width="20" height="20" as="geometry" />
        </mxCell>
        <mxCell id="F8SetdtUbHbw25VRXW6T-23" value="TJM * nombre de jours" style="text;html=1;align=center;verticalAlign=middle;resizable=0;points=[];autosize=1;strokeColor=none;fillColor=none;" vertex="1" parent="1">
          <mxGeometry x="-540" y="258" width="140" height="30" as="geometry" />
        </mxCell>
        <mxCell id="F8SetdtUbHbw25VRXW6T-24" value="Extras" style="text;html=1;align=center;verticalAlign=middle;resizable=0;points=[];autosize=1;strokeColor=none;fillColor=none;" vertex="1" parent="1">
          <mxGeometry x="-250" y="258" width="60" height="30" as="geometry" />
        </mxCell>
        <mxCell id="F8SetdtUbHbw25VRXW6T-25" value="" style="shape=image;html=1;verticalAlign=top;verticalLabelPosition=bottom;labelBackgroundColor=#ffffff;imageAspect=0;aspect=fixed;image=https://cdn2.iconfinder.com/data/icons/css-vol-2/24/math-equal-128.png" vertex="1" parent="1">
          <mxGeometry x="-595" y="300" width="30" height="30" as="geometry" />
        </mxCell>
        <mxCell id="F8SetdtUbHbw25VRXW6T-26" value="&lt;font style=&quot;font-size: 16px;&quot;&gt;Chiffre&amp;nbsp; d&#39;affaire Brut en €&lt;/font&gt;" style="text;html=1;align=center;verticalAlign=middle;resizable=0;points=[];autosize=1;strokeColor=none;fillColor=none;" vertex="1" parent="1">
          <mxGeometry x="-570" y="300" width="200" height="30" as="geometry" />
        </mxCell>
        <mxCell id="F8SetdtUbHbw25VRXW6T-27" value="CA - X% de charges" style="ellipse;shape=cloud;whiteSpace=wrap;html=1;" vertex="1" parent="1">
          <mxGeometry x="-580" y="340" width="250" height="120" as="geometry" />
        </mxCell>
        <mxCell id="F8SetdtUbHbw25VRXW6T-28" value="Charges" style="rounded=0;whiteSpace=wrap;html=1;" vertex="1" parent="1">
          <mxGeometry x="-360" y="330" width="160" height="40" as="geometry" />
        </mxCell>
        <mxCell id="F8SetdtUbHbw25VRXW6T-29" value="5.5&lt;br&gt;11&lt;br&gt;16.50&lt;br&gt;22" style="ellipse;shape=cloud;whiteSpace=wrap;html=1;" vertex="1" parent="1">
          <mxGeometry x="-230" y="310" width="120" height="80" as="geometry" />
        </mxCell>
        <mxCell id="F8SetdtUbHbw25VRXW6T-56" value="" style="shape=cube;whiteSpace=wrap;html=1;boundedLbl=1;backgroundOutline=1;darkOpacity=0.05;darkOpacity2=0.1;" vertex="1" parent="1">
          <mxGeometry y="640" width="120" height="50" as="geometry" />
        </mxCell>
        <mxCell id="F8SetdtUbHbw25VRXW6T-57" value="" style="shape=cube;whiteSpace=wrap;html=1;boundedLbl=1;backgroundOutline=1;darkOpacity=0.05;darkOpacity2=0.1;" vertex="1" parent="1">
          <mxGeometry y="690" width="120" height="120" as="geometry" />
        </mxCell>
        <mxCell id="F8SetdtUbHbw25VRXW6T-58" value="" style="shape=cube;whiteSpace=wrap;html=1;boundedLbl=1;backgroundOutline=1;darkOpacity=0.05;darkOpacity2=0.1;" vertex="1" parent="1">
          <mxGeometry y="970" width="120" height="120" as="geometry" />
        </mxCell>
        <mxCell id="F8SetdtUbHbw25VRXW6T-59" value="" style="shape=cube;whiteSpace=wrap;html=1;boundedLbl=1;backgroundOutline=1;darkOpacity=0.05;darkOpacity2=0.1;" vertex="1" parent="1">
          <mxGeometry y="835" width="120" height="120" as="geometry" />
        </mxCell>
        <mxCell id="F8SetdtUbHbw25VRXW6T-60" value="" style="shape=cube;whiteSpace=wrap;html=1;boundedLbl=1;backgroundOutline=1;darkOpacity=0.05;darkOpacity2=0.1;" vertex="1" parent="1">
          <mxGeometry y="1090" width="120" height="50" as="geometry" />
        </mxCell>
        <mxCell id="F8SetdtUbHbw25VRXW6T-61" value="" style="shape=cube;whiteSpace=wrap;html=1;boundedLbl=1;backgroundOutline=1;darkOpacity=0.05;darkOpacity2=0.1;" vertex="1" parent="1">
          <mxGeometry y="1140" width="120" height="110" as="geometry" />
        </mxCell>
      </root>
    </mxGraphModel>
  </diagram>
</mxfile>
